<?xml version="1.0" encoding="UTF-8"?>
<svg id="svg9" xmlns="http://www.w3.org/2000/svg" version="1.1" xmlns:inkscape="http://www.inkscape.org/namespaces/inkscape" xmlns:sodipodi="http://sodipodi.sourceforge.net/DTD/sodipodi-0.dtd" xmlns:svg="http://www.w3.org/2000/svg" viewBox="0 0 32 32">
  <!-- Generator: Adobe Illustrator 29.8.3, SVG Export Plug-In . SVG Version: 2.1.1 Build 3)  -->
  <defs>
    <style>
      .st0 {
        fill: #f2d8a7;
      }
    </style>
  </defs>
  <sodipodi:namedview id="namedview11" bordercolor="#000000" borderopacity="0.25" inkscape:current-layer="svg9" inkscape:cx="12.229796" inkscape:cy="15.984421" inkscape:deskcolor="#d1d1d1" inkscape:pagecheckerboard="0" inkscape:pageopacity="0.0" inkscape:showpageshadow="2" inkscape:window-height="1334" inkscape:window-maximized="1" inkscape:window-width="2560" inkscape:window-x="-11" inkscape:window-y="-11" inkscape:zoom="32.09375" pagecolor="#ffffff" showgrid="false"/>
  <path id="path7" class="st0" d="M21.81,32h-8.53s.01-2.53,0-4.27c-5.84,1.26-7.47-3.2-7.47-3.2-1.07-2.13-2.13-3.2-2.13-3.2-2.13-1.27,0-1.07,0-1.07,2.13,0,3.2,2.13,3.2,2.13,1.87,3.18,5.2,2.67,6.4,2.13,0-1.07.47-2.68,1.07-3.2-4.66-.52-8.54-3.2-8.54-8.53s1.07-6.4,2.14-7.47C7.73,4.81,6.84,2.86,7.98,0,7.98,0,10.07,0,12.2,3.2c1.06-1.06,4.27-1.07,5.33-1.07s4.27,0,5.33,1.07C25,0,27.11,0,27.11,0c1.14,2.86.25,4.81.03,5.33,1.07,1.07,2.13,2.13,2.13,7.47s-3.87,8.01-8.53,8.53c.6.52,1.07,2.36,1.07,3.2v7.47h0Z"/>
</svg>