<?xml version="1.0" encoding="UTF-8"?>
<svg id="svg13561" xmlns="http://www.w3.org/2000/svg" version="1.1" xmlns:inkscape="http://www.inkscape.org/namespaces/inkscape" xmlns:sodipodi="http://sodipodi.sourceforge.net/DTD/sodipodi-0.dtd" xmlns:svg="http://www.w3.org/2000/svg" viewBox="0 0 32 32">
  <!-- Generator: Adobe Illustrator 29.8.3, SVG Export Plug-In . SVG Version: 2.1.1 Build 3)  -->
  <defs>
    <style>
      .st0 {
        fill: #f2d8a7;
      }
    </style>
  </defs>
  <sodipodi:namedview id="namedview13563" bordercolor="#000000" borderopacity="0.25" inkscape:current-layer="svg13561" inkscape:cx="12.821811" inkscape:cy="15.984421" inkscape:deskcolor="#d1d1d1" inkscape:pagecheckerboard="0" inkscape:pageopacity="0.0" inkscape:showpageshadow="2" inkscape:window-height="1334" inkscape:window-maximized="1" inkscape:window-width="2560" inkscape:window-x="-11" inkscape:window-y="-11" inkscape:zoom="32.09375" pagecolor="#ffffff" showgrid="false"/>
  <path id="path13559" class="st0" d="M32,31.29v-11.83c0-6.34-3.38-9.29-7.9-9.29-3.64,0-5.27,2-6.18,3.41v-2.92h-6.86c.09,1.94,0,20.64,0,20.64h6.86v-11.52c0-.61.04-1.23.23-1.67.5-1.23,1.62-2.51,3.52-2.51,2.48,0,3.48,1.89,3.48,4.67v11.04h6.86ZM3.84,7.84c2.39,0,3.88-1.59,3.88-3.57-.04-2.02-1.49-3.56-3.84-3.56S0,2.25,0,4.27s1.49,3.57,3.79,3.57h.04ZM7.27,31.29V10.65H.41v20.64h6.86Z"/>
</svg>