<?xml version="1.0" encoding="UTF-8"?>
<svg id="svg15912" xmlns="http://www.w3.org/2000/svg" version="1.1" xmlns:inkscape="http://www.inkscape.org/namespaces/inkscape" xmlns:sodipodi="http://sodipodi.sourceforge.net/DTD/sodipodi-0.dtd" xmlns:svg="http://www.w3.org/2000/svg" viewBox="0 0 32 32">
  <!-- Generator: Adobe Illustrator 29.8.3, SVG Export Plug-In . SVG Version: 2.1.1 Build 3)  -->
  <defs>
    <style>
      .st0 {
        fill: #f2d8a7;
      }
    </style>
  </defs>
  <sodipodi:namedview id="namedview15914" bordercolor="#000000" borderopacity="0.25" inkscape:current-layer="svg15912" inkscape:cx="12.821811" inkscape:cy="15.984421" inkscape:deskcolor="#d1d1d1" inkscape:pagecheckerboard="0" inkscape:pageopacity="0.0" inkscape:showpageshadow="2" inkscape:window-height="1334" inkscape:window-maximized="1" inkscape:window-width="2560" inkscape:window-x="-11" inkscape:window-y="-11" inkscape:zoom="32.09375" pagecolor="#ffffff" showgrid="false"/>
  <path id="path15910" class="st0" d="M20.05,3.07c-2.89,1.05-4.72,3.76-4.51,6.73l.07,1.15-1.16-.14c-4.21-.54-7.88-2.36-11.01-5.42l-1.53-1.52-.39,1.12c-.83,2.5-.3,5.14,1.43,6.92.92.98.72,1.12-.88.54-.56-.19-1.04-.33-1.09-.26-.16.16.39,2.29.83,3.13.6,1.17,1.83,2.31,3.17,2.99l1.13.54-1.34.02c-1.29,0-1.34.02-1.2.51.46,1.52,2.29,3.13,4.32,3.83l1.43.49-1.25.75c-1.89,1.09-4.02,1.68-6.2,1.73C.85,26.21,0,26.31,0,26.38,0,26.61,2.82,27.92,4.46,28.43c4.93,1.52,10.77.86,15.17-1.73,3.12-1.85,6.24-5.52,7.7-9.07.79-1.89,1.57-5.35,1.57-7.01,0-1.08.07-1.22,1.36-2.5.76-.75,1.48-1.57,1.62-1.8.23-.45.21-.45-.97-.05-1.97.7-2.24.61-1.27-.44.72-.75,1.57-2.1,1.57-2.5,0-.07-.35.05-.74.26-.42.23-1.34.58-2.03.79l-1.25.4-1.13-.77c-.62-.42-1.5-.89-1.97-1.03-1.18-.33-2.98-.28-4.05.09Z"/>
</svg>